<svg width="445" height="112" viewBox="0 0 445 112" fill="none" xmlns="http://www.w3.org/2000/svg">
<g clip-path="url(#clip0_35_175)">
<path d="M17.5425 104L4.10568 87H0V111.545H4.38562V94.0909L18.1956 111.545H21.9281V87H17.5425V104Z" fill="white"/>
<path d="M29.9528 101.091H42.5498V97.2727H29.9528V90.8182H44.2294V87H25.5672V111.545H44.416V107.636H29.9528V101.091Z" fill="white"/>
<path d="M63.4515 101.091C63.4515 105.636 61.0254 107.909 57.1064 107.909C53.1873 107.909 50.7612 105.455 50.7612 100.909V87H46.3756V101.091C46.3756 108.182 50.5746 111.909 57.1064 111.909C63.7314 111.909 67.9304 108.273 67.9304 100.909V87H63.4515V101.091Z" fill="white"/>
<path d="M103.202 86.8182L92.2845 111.182L85.7527 102.273C89.2985 101.273 91.7246 98.9091 91.7246 94.8182V94.7273C91.7246 92.5454 90.9781 90.7273 89.6718 89.4545C88.0855 87.9091 85.5661 87 82.3935 87H71.1962V111.545H75.5818V103H81.0872L87.2457 111.545H92.0979H92.4711H96.5768L99.1895 105.636H111.133L113.653 111.545H118.318L107.308 86.8182H103.202ZM75.5818 99.1818V90.9091H82.0203C85.2862 90.9091 87.2457 92.3636 87.2457 95V95.0909C87.2457 97.5454 85.1929 99.1818 82.0203 99.1818H75.5818ZM100.869 101.818L105.161 92L109.547 101.818H100.869Z" fill="white"/>
<path d="M124.197 87H119.811V111.545H137.447V107.636H124.197V87Z" fill="white"/>
<path d="M156.762 97.2727C151.91 96.1818 150.791 95.2727 150.791 93.4545V93.3636C150.791 91.7272 152.284 90.4545 154.896 90.4545C157.229 90.4545 159.469 91.3636 161.708 93L164.041 89.7272C161.521 87.7272 158.535 86.6363 154.896 86.6363C149.857 86.6363 146.312 89.5454 146.312 93.7272V93.8182C146.312 98.3636 149.298 99.9091 154.71 101.182C159.375 102.273 160.402 103.182 160.402 104.909V105C160.402 106.818 158.722 108.091 155.923 108.091C152.75 108.091 150.417 106.909 147.991 104.909L145.285 108C148.271 110.636 151.91 111.909 155.829 111.909C161.148 111.909 164.787 109.182 164.787 104.545V104.455C164.881 100.455 162.081 98.5454 156.762 97.2727Z" fill="white"/>
<path d="M171.692 101.091H184.289V97.2727H171.692V90.8182H185.876V87H167.213V111.545H186.062V107.636H171.692V101.091Z" fill="white"/>
<path d="M200.805 98.6364L193.154 87H188.488V111.545H192.78V94L200.712 105.545H200.805L208.83 93.9091V111.545H213.216V87H208.457L200.805 98.6364Z" fill="white"/>
<path d="M221.427 87H217.041V111.545H221.427V87Z" fill="white"/>
<path d="M237.196 108C232.344 108 228.892 104.091 228.892 99.2727V99.1818C228.892 94.3636 232.344 90.5454 237.196 90.5454C240.089 90.5454 242.235 91.8182 244.288 93.6363L247.087 90.4545C244.661 88.1818 241.862 86.6363 237.196 86.6363C229.545 86.6363 224.226 92.3636 224.226 99.3636V99.4545C224.226 106.455 229.732 112.091 237.01 112.091C241.769 112.091 244.568 110.455 247.181 107.727L244.381 104.909C242.235 106.727 240.276 108 237.196 108Z" fill="white"/>
<path d="M261.084 86.5454C253.339 86.5454 247.927 92.3636 247.927 99.2727V99.3636C247.927 106.273 253.339 112 261.084 112C268.829 112 274.241 106.182 274.241 99.2727V99.1818C274.241 92.2727 268.829 86.5454 261.084 86.5454ZM269.575 99.3636C269.575 104.091 266.123 108 261.084 108C256.045 108 252.5 104 252.5 99.2727V99.1818C252.5 94.4545 255.952 90.5455 260.991 90.5455C266.03 90.5455 269.575 94.5455 269.575 99.3636Z" fill="white"/>
<path d="M294.303 104L280.773 87H276.667V111.545H281.053V94.0909L294.956 111.545H298.688V87H294.303V104Z" fill="white"/>
<path d="M311.659 87H302.234V111.545H311.659C319.59 111.545 325.002 106.182 325.002 99.2727V99.1818C325.002 92.2727 319.59 87 311.659 87ZM320.337 99.3637C320.337 104.182 316.884 107.636 311.565 107.636H306.62V90.9091H311.565C316.884 90.9091 320.337 94.4546 320.337 99.3637Z" fill="white"/>
<path d="M344.224 101.091C344.224 105.636 341.798 107.909 337.879 107.909C333.96 107.909 331.534 105.455 331.534 100.909V87H327.148V101.091C327.148 108.182 331.347 111.909 337.879 111.909C344.504 111.909 348.703 108.273 348.703 100.909V87H344.317V101.091H344.224Z" fill="white"/>
<path d="M363.726 108C358.874 108 355.421 104.091 355.421 99.2727V99.1818C355.421 94.3636 358.874 90.5454 363.726 90.5454C366.619 90.5454 368.765 91.8182 370.818 93.6363L373.617 90.4545C371.191 88.1818 368.392 86.6363 363.726 86.6363C356.075 86.6363 350.756 92.3636 350.756 99.3636V99.4545C350.756 106.455 356.261 112.091 363.54 112.091C368.298 112.091 371.098 110.455 373.71 107.727L370.911 104.909C368.765 106.727 366.805 108 363.726 108Z" fill="white"/>
<path d="M373.71 91H381.735V111.545H386.121V91H394.146V87H373.71V91Z" fill="white"/>
<path d="M408.049 86.5454C400.304 86.5454 394.892 92.3636 394.892 99.2727V99.3636C394.892 106.273 400.304 112 408.049 112C415.794 112 421.206 106.182 421.206 99.2727V99.1818C421.206 92.2727 415.794 86.5454 408.049 86.5454ZM416.54 99.3636C416.54 104.091 413.088 108 408.049 108C403.01 108 399.464 104 399.464 99.2727V99.1818C399.464 94.4545 402.917 90.5455 407.956 90.5455C412.994 90.5455 416.54 94.5455 416.54 99.3636Z" fill="white"/>
<path d="M438.188 102.273C441.734 101.273 444.16 98.9091 444.16 94.8182V94.7273C444.16 92.5455 443.414 90.7273 442.107 89.4546C440.521 87.9091 438.002 87 434.829 87H423.632V111.545H428.017V103H433.523L439.681 111.545H444.907L438.188 102.273ZM428.111 99.1818V90.9091H434.549C437.815 90.9091 439.775 92.3637 439.775 95V95.0909C439.775 97.5455 437.722 99.1818 434.549 99.1818H428.111Z" fill="white"/>
<path d="M258.658 65.0909C258.658 68.3636 256.605 70.4545 253.153 70.4545H191.847C188.488 70.4545 186.342 68.4545 186.342 65.0909V5.36364C186.342 2.09091 188.395 0 191.847 0H253.153C256.512 0 258.658 2 258.658 5.36364V65.0909Z" fill="#007DBE"/>
<path d="M209.577 0H205.751V21.8182C205.191 22.3636 204.725 23.0909 204.725 23.9091C204.725 25.4545 206.031 26.7273 207.617 26.7273C209.203 26.7273 210.51 25.4545 210.51 23.9091C210.51 23.0909 210.137 22.2727 209.483 21.8182V0H209.577ZM207.99 25.1818C207.897 25.1818 207.804 25.1818 207.71 25.1818C207.617 25.1818 207.524 25.1818 207.431 25.1818C206.777 25.0909 206.404 24.5455 206.404 23.9091C206.404 23.1818 207.057 22.5455 207.804 22.5455C208.55 22.5455 209.203 23.1818 209.203 23.9091C209.017 24.5455 208.55 25.0909 207.99 25.1818Z" fill="white"/>
<path d="M198.659 0H194.833V12.7273C194.18 13.2727 193.807 14 193.807 14.8182C193.807 16.3636 195.113 17.6364 196.7 17.6364C198.286 17.6364 199.592 16.3636 199.592 14.8182C199.592 14 199.219 13.1818 198.566 12.7273V0H198.659ZM197.073 16.1818C196.98 16.1818 196.886 16.1818 196.793 16.1818C196.7 16.1818 196.606 16.1818 196.513 16.1818C195.86 16 195.487 15.5455 195.487 14.9091C195.487 14.1818 196.14 13.5455 196.886 13.5455C197.633 13.5455 198.286 14.1818 198.286 14.9091C198.099 15.4545 197.726 16 197.073 16.1818Z" fill="white"/>
<path d="M253.433 13.2727V0C253.339 0 253.246 0 253.153 0H249.607V13.2727C249.047 13.8182 248.58 14.5455 248.58 15.3636C248.58 16.9091 249.887 18.1818 251.473 18.1818C253.059 18.1818 254.366 16.9091 254.366 15.3636C254.459 14.5455 254.086 13.8182 253.433 13.2727ZM251.846 16.6364C251.753 16.6364 251.66 16.6364 251.566 16.6364C251.473 16.6364 251.38 16.6364 251.287 16.6364C250.633 16.5455 250.26 16 250.26 15.3636C250.26 14.6364 250.913 14 251.66 14C252.406 14 253.059 14.6364 253.059 15.3636C252.873 16 252.406 16.5455 251.846 16.6364Z" fill="white"/>
<path d="M242.515 0H238.69V4.18182C238.036 4.72727 237.663 5.45455 237.663 6.27273C237.663 7.81818 238.97 9.09091 240.556 9.09091C242.142 9.09091 243.449 7.81818 243.449 6.27273C243.449 5.45455 243.075 4.63636 242.422 4.18182V0H242.515ZM240.929 7.63636C240.836 7.63636 240.742 7.63636 240.649 7.63636C240.556 7.63636 240.463 7.63636 240.369 7.63636C239.716 7.54545 239.343 7 239.343 6.36364C239.343 5.63636 239.996 5 240.742 5C241.489 5 242.142 5.63636 242.142 6.36364C242.049 6.90909 241.582 7.45455 240.929 7.63636Z" fill="white"/>
<path d="M220.401 31.0909C218.814 31.0909 217.508 32.3636 217.508 33.9091C217.508 34.8182 217.881 35.5455 218.534 36.0909V57.9091H217.975L198.846 38.2727C198.193 37.5455 197.073 37 196.046 37H194.367C192.874 37 191.568 38.1818 191.568 39.6364V57.6364C191.008 58.1818 190.541 58.9091 190.541 59.7273C190.541 61.2727 191.847 62.5455 193.434 62.5455C195.02 62.5455 196.326 61.2727 196.326 59.7273C196.326 58.9091 195.953 58.0909 195.3 57.6364V40.7273H195.86C195.86 40.7273 195.86 40.7273 195.953 40.7273L214.989 60.3636C215.642 61.0909 216.761 61.6364 217.788 61.6364H219.467C220.96 61.6364 222.174 60.4545 222.174 58.9091V36.0909C222.733 35.5455 223.2 34.8182 223.2 34C223.293 32.3636 221.987 31.0909 220.401 31.0909ZM193.807 61.0909C193.714 61.0909 193.62 61.0909 193.527 61.0909C193.434 61.0909 193.34 61.0909 193.247 61.0909C192.594 61 192.127 60.4545 192.127 59.8182C192.127 59.0909 192.781 58.4545 193.527 58.4545C194.274 58.4545 194.927 59.0909 194.927 59.8182C194.833 60.3636 194.367 60.9091 193.807 61.0909ZM220.401 35.2727C219.654 35.2727 219.001 34.6364 219.001 33.9091C219.001 33.2727 219.561 32.6364 220.214 32.6364C220.307 32.6364 220.307 32.6364 220.401 32.6364C220.494 32.6364 220.494 32.6364 220.587 32.6364C221.24 32.7273 221.8 33.2727 221.8 33.9091C221.8 34.7273 221.147 35.2727 220.401 35.2727Z" fill="white"/>
<path d="M248.394 47.4545H229.918C228.612 47.4545 227.586 46.4545 227.586 45.1818V42.9091C227.586 41.6364 228.612 40.6364 229.918 40.6364H249.42C249.98 41.2727 250.727 41.6364 251.566 41.6364C253.153 41.6364 254.459 40.3636 254.459 38.8182C254.459 37.2727 253.153 36 251.566 36C250.727 36 249.887 36.3636 249.42 37H229.918C226.559 37 223.76 39.6364 223.76 43V45.2727C223.76 48.5454 226.466 51.2727 229.918 51.2727H248.394C249.7 51.2727 250.727 52.2727 250.727 53.5454V55.8182C250.727 57.0909 249.7 58.0909 248.394 58.0909H228.799C228.239 57.5454 227.492 57.0909 226.652 57.0909C225.066 57.0909 223.76 58.3636 223.76 59.9091C223.76 61.4545 225.066 62.7273 226.652 62.7273C227.492 62.7273 228.332 62.3636 228.799 61.7273H248.394C251.753 61.7273 254.459 59.0909 254.459 55.7273V53.4545C254.459 50.1818 251.753 47.4545 248.394 47.4545ZM251.566 37.5455C252.22 37.5455 252.78 38 252.873 38.6364C252.873 38.7273 252.873 38.8182 252.873 38.9091C252.873 39 252.873 39.0909 252.873 39.1818C252.78 39.8182 252.22 40.2727 251.566 40.2727C250.82 40.2727 250.167 39.6364 250.167 38.9091C250.167 38.0909 250.82 37.5455 251.566 37.5455ZM226.652 61.0909C225.999 61.0909 225.533 60.6364 225.346 60.0909C225.346 60 225.253 59.8182 225.253 59.7273C225.253 59.6364 225.253 59.4545 225.346 59.3636C225.533 58.8182 225.999 58.3636 226.652 58.3636C227.399 58.3636 228.052 59 228.052 59.7273C227.959 60.5454 227.399 61.0909 226.652 61.0909Z" fill="white"/>
</g>
<defs>
<clipPath id="clip0_35_175">
<rect width="445" height="112" fill="white"/>
</clipPath>
</defs>
</svg>
